Coordinates
version=1
nRows=14
nColumns=40
inDegrees=yes

Units are S.I. units (second, meters, Newtons, ...)
If the header above contains a line with 'inDegrees', this indicates whether rotational values are in degrees (yes) or radians (no).

endheader
time	pelvis_tilt	pelvis_list	pelvis_rotation	pelvis_tx	pelvis_ty	pelvis_tz	hip_flexion_r	hip_adduction_r	hip_rotation_r	knee_angle_r	knee_angle_r_beta	ankle_angle_r	subtalar_angle_r	mtp_angle_r	hip_flexion_l	hip_adduction_l	hip_rotation_l	knee_angle_l	knee_angle_l_beta	ankle_angle_l	subtalar_angle_l	mtp_angle_l	lumbar_extension	lumbar_bending	lumbar_rotation	arm_flex_r	arm_add_r	arm_rot_r	elbow_flex_r	pro_sup_r	wrist_flex_r	wrist_dev_r	arm_flex_l	arm_add_l	arm_rot_l	elbow_flex_l	pro_sup_l	wrist_flex_l	wrist_dev_l
      3.70000000	      2.13174013	     -2.95831074	      4.76845301	     -0.33224458	      0.87415248	     -1.06773391	     43.01481985	      0.18798422	     -3.08948974	      1.59436858	      0.02782698	     -9.29225458	      0.00000000	      0.00000000	     39.08388975	      0.41251847	     -1.66487913	     76.87489745	      1.34172007	     24.55903252	      0.00000000	      0.00000000	    -17.86682514	     -1.82261971	      5.47207563	     89.95541238	     -2.85923956	      7.05015327	     42.94643198	     79.01866232	      0.00000000	      0.00000000	     89.96687303	      3.14509034	     18.58645235	     48.24554116	     76.57462051	      0.00000000	      0.00000000
      3.70500000	      2.14070477	     -2.84551064	      4.78322029	     -0.33166013	      0.87539605	     -1.06774375	     42.91180464	      0.10669605	     -3.16003701	      1.63134281	      0.02847230	     -9.29040215	      0.00000000	      0.00000000	     38.85526645	      0.56401625	     -1.67905112	     76.55239020	      1.33609126	     24.57659663	      0.00000000	      0.00000000	    -17.78845350	     -1.93561498	      5.35037528	     89.95524402	     -2.83049997	      7.21881111	     42.81140771	     79.11828812	      0.00000000	      0.00000000	     89.96678948	      3.09885723	     18.63867837	     48.11568807	     76.34338034	      0.00000000	      0.00000000
      3.71000000	      2.11101571	     -2.90323259	      4.79570431	     -0.33137113	      0.87650522	     -1.06770336	     42.85442971	      0.15924529	     -3.16082300	      1.65209537	      0.02883450	     -9.28198476	      0.00000000	      0.00000000	     38.76353836	      0.54113431	     -1.59331391	     76.32458087	      1.33211524	     24.50624006	      0.00000000	      0.00000000	    -17.70376101	     -1.86207560	      5.36311843	     89.95512777	     -2.85464347	      7.19146866	     42.81308968	     79.12965753	      0.00000000	      0.00000000	     89.96666314	      3.07002845	     18.65784369	     48.08608573	     76.30430456	      0.00000000	      0.00000000
      3.71500000	      2.07953485	     -2.93622080	      4.80243536	     -0.33080192	      0.87769830	     -1.06757091	     42.76892223	      0.21221664	     -3.18437508	      1.65956982	      0.02896496	     -9.25893461	      0.00000000	      0.00000000	     38.61556942	      0.52730991	     -1.53824779	     76.04631886	      1.32725865	     24.43901671	      0.00000000	      0.00000000	    -17.58980253	     -1.85119540	      5.33209966	     89.95483828	     -2.85425377	      7.21628231	     42.76041444	     79.14499619	      0.00000000	      0.00000000	     89.96646896	      3.07083700	     18.71203473	     48.00534184	     76.26584457	      0.00000000	      0.00000000
      3.72000000	      2.05708195	     -2.91906741	      4.82949475	     -0.33040157	      0.87889997	     -1.06755948	     42.70345396	      0.19267782	     -3.22339420	      1.67655400	      0.02926139	     -9.27479623	      0.00000000	      0.00000000	     38.46894164	      0.57717773	     -1.49415223	     75.76008952	      1.32226300	     24.37211699	      0.00000000	      0.00000000	    -17.49469193	     -1.84881736	      5.28999346	     89.95467929	     -2.84873670	      7.24566208	     42.68112514	     79.16558321	      0.00000000	      0.00000000	     89.96634026	      3.03839452	     18.77656746	     47.91650141	     76.22167189	      0.00000000	      0.00000000
      3.72500000	      2.09826878	     -2.90342453	      4.88517256	     -0.32992164	      0.88020999	     -1.06764653	     42.56073131	      0.15530609	     -3.26515497	      1.72375140	      0.03008514	     -9.28380457	      0.00000000	      0.00000000	     38.23446757	      0.67026249	     -1.40809175	     75.47980448	      1.31737111	     24.21700007	      0.00000000	      0.00000000	    -17.46730152	     -1.84078147	      5.20853397	     89.95442446	     -2.83806197	      7.29409649	     42.62039318	     79.19605100	      0.00000000	      0.00000000	     89.96625690	      3.01301038	     18.86663753	     47.78890025	     76.16073658	      0.00000000	      0.00000000
      3.73000000	      2.05342122	     -2.81294038	      4.87564541	     -0.32955245	      0.88125775	     -1.06759794	     42.54085596	      0.09277415	     -3.29347712	      1.73871936	      0.03034638	     -9.35384767	      0.00000000	      0.00000000	     38.11353944	      0.77636845	     -1.41672751	     75.20003375	      1.31248819	     24.12076594	      0.00000000	      0.00000000	    -17.35443119	     -1.94075293	      5.13198570	     89.95434949	     -2.80003973	      7.33154558	     42.53626132	     79.22369933	      0.00000000	      0.00000000	     89.96614868	      2.96115581	     18.94698066	     47.71005600	     76.10653881	      0.00000000	      0.00000000
      3.73500000	      2.01724859	     -2.82028200	      4.87781986	     -0.32918135	      0.88227851	     -1.06762308	     42.47713937	      0.10805197	     -3.29235905	      1.74746956	      0.03049910	     -9.35213339	      0.00000000	      0.00000000	     38.07957572	      0.78098987	     -1.41583197	     75.15680670	      1.31173373	     24.10652952	      0.00000000	      0.00000000	    -17.26514517	     -1.93684886	      5.10621186	     89.95411870	     -2.80992782	      7.32283467	     42.56930099	     79.22528558	      0.00000000	      0.00000000	     89.96597030	      2.95660289	     18.94567036	     47.71921443	     76.10136081	      0.00000000	      0.00000000
      3.74000000	      2.02377337	     -2.86043242	      4.95175356	     -0.32868420	      0.88371574	     -1.06758663	     42.35139795	      0.11331399	     -3.29779485	      1.77744947	      0.03102235	     -9.35606606	      0.00000000	      0.00000000	     37.84955756	      0.77251364	     -1.33085329	     74.69863135	      1.30373706	     23.97580247	      0.00000000	      0.00000000	    -17.18942004	     -1.88054971	      5.00544726	     89.95377497	     -2.79455395	      7.37079097	     42.44431078	     79.24791924	      0.00000000	      0.00000000	     89.96575393	      2.90563293	     19.04706401	     47.56889511	     76.06160313	      0.00000000	      0.00000000
      3.74500000	      2.04986279	     -2.81111570	      4.97442582	     -0.32809546	      0.88502041	     -1.06760888	     42.20800811	      0.07749260	     -3.33603150	      1.77706680	      0.03101567	     -9.34314968	      0.00000000	      0.00000000	     37.62293993	      0.86218794	     -1.27764783	     74.41929976	      1.29886181	     23.85166529	      0.00000000	      0.00000000	    -17.13682735	     -1.92106619	      4.91303034	     89.95371303	     -2.74351330	      7.43271022	     42.30907219	     79.27981349	      0.00000000	      0.00000000	     89.96568605	      2.83117429	     19.19312821	     47.42288421	     76.01180516	      0.00000000	      0.00000000
      3.75000000	      2.06925915	     -2.72126375	      5.05300771	     -0.32758809	      0.88632354	     -1.06769338	     42.06552015	     -0.03265777	     -3.39507225	      1.77659343	      0.03100740	     -9.30360710	      0.00000000	      0.00000000	     37.43295903	      1.02039803	     -1.20358587	     74.16498945	      1.29442326	     23.74155242	      0.00000000	      0.00000000	    -17.09068726	     -2.00811252	      4.72426266	     89.95345944	     -2.69399260	      7.49052169	     42.16639730	     79.33878872	      0.00000000	      0.00000000	     89.96556299	      2.72090565	     19.37255568	     47.27499734	     75.92023025	      0.00000000	      0.00000000
      3.75500000	      2.02291449	     -2.74594947	      5.02144919	     -0.32720933	      0.88748364	     -1.06760424	     42.03156989	      0.01842563	     -3.40397872	      1.78817490	      0.03120954	     -9.33632526	      0.00000000	      0.00000000	     37.33455675	      0.98529722	     -1.19931420	     73.92735182	      1.29027570	     23.68629664	      0.00000000	      0.00000000	    -16.98498800	     -1.98370259	      4.70505912	     89.95326785	     -2.64662241	      7.50712301	     42.17660975	     79.36203225	      0.00000000	      0.00000000	     89.96538935	      2.67194311	     19.43234456	     47.23650220	     75.88819611	      0.00000000	      0.00000000
      3.76000000	      1.98614937	     -2.75551782	      5.03155845	     -0.32677922	      0.88852156	     -1.06752803	     41.97069018	      0.03447426	     -3.40405404	      1.80047197	      0.03142416	     -9.34285874	      0.00000000	      0.00000000	     37.29940635	      0.97499815	     -1.19826096	     73.86267483	      1.28914687	     23.66868963	      0.00000000	      0.00000000	    -16.89140032	     -1.98575884	      4.67892722	     89.95296561	     -2.65502210	      7.50229565	     42.19549373	     79.36537933	      0.00000000	      0.00000000	     89.96520650	      2.66533280	     19.43767306	     47.24364014	     75.88242051	      0.00000000	      0.00000000
      3.76500000	      1.95847066	     -2.79242638	      5.03323703	     -0.32629249	      0.88967925	     -1.06739189	     41.93382990	      0.07633045	     -3.42294739	      1.81246464	      0.03163348	     -9.42473735	      0.00000000	      0.00000000	     37.11858193	      0.92220512	     -1.17770985	     73.47240064	      1.28233530	     23.55733981	      0.00000000	      0.00000000	    -16.77993716	     -1.97127893	      4.62001274	     89.95272887	     -2.65989705	      7.52556219	     42.04900285	     79.38453126	      0.00000000	      0.00000000	     89.96498585	      2.58950880	     19.53907325	     47.14812855	     75.85573787	      0.00000000	      0.00000000
